<svg width="800" height="450" xmlns="http://www.w3.org/2000/svg">
  <defs>
    <linearGradient id="grad2" x1="0%" y1="0%" x2="100%" y2="100%">
      <stop offset="0%" style="stop-color:#03A3B2;stop-opacity:1" />
      <stop offset="100%" style="stop-color:#172F56;stop-opacity:1" />
    </linearGradient>
  </defs>
  <rect width="800" height="450" fill="url(#grad2)"/>
  <g transform="translate(100, 100)">
    <rect x="0" y="0" width="150" height="250" fill="none" stroke="#ffffff" stroke-width="2" rx="4"/>
    <circle cx="75" cy="40" r="20" fill="#ffffff"/>
    <rect x="30" y="80" width="90" height="8" fill="#ffffff" opacity="0.7"/>
    <rect x="30" y="100" width="90" height="6" fill="#ffffff" opacity="0.5"/>
  </g>
  <g transform="translate(350, 100)">
    <rect x="0" y="0" width="150" height="250" fill="none" stroke="#ffffff" stroke-width="2" rx="4"/>
    <circle cx="75" cy="40" r="20" fill="#ffffff"/>
    <rect x="30" y="80" width="90" height="8" fill="#ffffff" opacity="0.7"/>
    <rect x="30" y="100" width="90" height="6" fill="#ffffff" opacity="0.5"/>
  </g>
  <g transform="translate(600, 100)">
    <rect x="0" y="0" width="150" height="250" fill="none" stroke="#ffffff" stroke-width="2" rx="4"/>
    <circle cx="75" cy="40" r="20" fill="#ffffff"/>
    <rect x="30" y="80" width="90" height="8" fill="#ffffff" opacity="0.7"/>
    <rect x="30" y="100" width="90" height="6" fill="#ffffff" opacity="0.5"/>
  </g>
  <text x="400" y="410" text-anchor="middle" font-size="24" font-weight="bold" fill="#ffffff">JMA HR Consulting - Corporate Site</text>
</svg>